<?xml version="1.0" encoding="UTF-8"?>
<svg version="1.1" xmlns="http://www.w3.org/2000/svg" width="427" height="204">
<path d="M0 0 C1.4540625 0.0309375 1.4540625 0.0309375 2.9375 0.0625 C5.12434534 4.43619068 4.54066589 10.02798707 3.18359375 14.60546875 C2.49302889 16.3955212 1.78894399 18.18039392 1.07421875 19.9609375 C-0.23088036 23.52192958 -1.13273411 27.12750314 -2 30.8125 C-3.58510307 37.46882995 -5.60350854 43.83949865 -7.83203125 50.3125 C-9.50070849 55.39799254 -10.84510971 60.53817463 -12.16796875 65.72265625 C-13.0625 69.0625 -13.0625 69.0625 -14.046875 71.87109375 C-15.42712442 76.20826211 -16.27738879 80.59455605 -17.125 85.0625 C-17.30200439 85.98716064 -17.47900879 86.91182129 -17.66137695 87.86450195 C-18.87349298 94.43893252 -19.609204 100.85882768 -19.88671875 107.54296875 C-20.0625 110.0625 -20.0625 110.0625 -21.0625 112.0625 C-16.6075 111.0725 -16.6075 111.0725 -12.0625 110.0625 C-11.7325 108.7425 -11.4025 107.4225 -11.0625 106.0625 C-9.4125 106.0625 -7.7625 106.0625 -6.0625 106.0625 C-6.0625 106.7225 -6.0625 107.3825 -6.0625 108.0625 C-2.5975 107.5675 -2.5975 107.5675 0.9375 107.0625 C1.04296143 105.78310547 1.14842285 104.50371094 1.25708008 103.18554688 C1.65696452 98.36142063 2.06781093 93.5382761 2.48168945 88.71533203 C2.65810443 86.64233563 2.83168972 84.56909612 3.00219727 82.49560547 C5.5974811 51.0021025 5.5974811 51.0021025 11 36.6875 C11.25587891 35.965625 11.51175781 35.24375 11.77539062 34.5 C12.86204475 31.51658971 13.66641169 29.33358831 15.9375 27.0625 C18.5 26.875 18.5 26.875 20.9375 27.0625 C23.35948336 29.48448336 22.18617895 36.51304257 22.19287109 39.9296875 C22.1228199 46.6546017 21.34853654 52.75955856 19.7890625 59.3125 C17.47745085 69.49207422 16.57375272 79.38416226 16.3125 89.8125 C16.25449219 91.73449219 16.25449219 91.73449219 16.1953125 93.6953125 C16.10211064 96.8175747 16.0163031 99.93984693 15.9375 103.0625 C17.5875 103.0625 19.2375 103.0625 20.9375 103.0625 C21.0921875 101.4228125 21.0921875 101.4228125 21.25 99.75 C21.9375 96.0625 21.9375 96.0625 23.1875 94.0625 C24.9375 93.0625 24.9375 93.0625 27.5625 93.3125 C29.9375 94.0625 29.9375 94.0625 30.9375 95.0625 C30.97830783 97.06208364 30.98004356 99.06295254 30.9375 101.0625 C32.03964844 100.8459375 33.14179688 100.629375 34.27734375 100.40625 C42.30956542 98.90271656 50.19019881 97.75178556 58.375 97.6875 C59.08970459 97.67396484 59.80440918 97.66042969 60.54077148 97.64648438 C63.39502996 97.67134906 65.49237253 97.79764488 67.97265625 99.2734375 C68.9375 101.0625 68.9375 101.0625 68.921875 103.6171875 C67.9375 106.0625 67.9375 106.0625 65.890625 107.3203125 C64.99859375 107.60648437 64.1065625 107.89265625 63.1875 108.1875 C62.19621094 108.50589844 61.20492187 108.82429688 60.18359375 109.15234375 C53.30795104 111.08017137 46.43707395 112.89579675 39.3125 113.5625 C35.98985249 113.71222405 35.98985249 113.71222405 34.4375 115.5625 C31.8608888 118.1391112 28.46665509 117.77322499 24.9375 118.0625 C24.9375 119.0525 24.9375 120.0425 24.9375 121.0625 C26.16082031 120.80855469 27.38414062 120.55460937 28.64453125 120.29296875 C38.22754512 118.32727149 47.80558425 116.5368549 57.47827148 115.0715332 C61.45357235 114.46667801 65.38286047 113.79948544 69.3125 112.9375 C72.80812384 112.19654725 76.18257818 111.8874574 79.75 111.6875 C88.3544853 111.11319595 96.703031 109.29508547 105.14501953 107.61523438 C117.11725736 105.2454891 129.07010168 103.10039677 141.1875 101.625 C151.73542386 100.33506969 162.09703238 98.389731 172.515625 96.31640625 C178.55562486 95.11875745 184.61458087 94.07724712 190.6875 93.0625 C198.61599253 91.7210317 206.46940459 90.14973369 214.3125 88.375 C215.26479492 88.16037109 216.21708984 87.94574219 217.19824219 87.72460938 C221.39847766 87.06000326 221.39847766 87.06000326 224.9375 85.0625 C224.29683594 85.08570312 223.65617187 85.10890625 222.99609375 85.1328125 C217.52762904 85.24690863 213.10651723 84.86041904 207.9375 83.0625 C207.3125 81.1875 207.3125 81.1875 206.9375 79.0625 C212.9803858 73.0196142 231.18207666 75.93170595 239.55291748 75.88726807 C241.01700744 75.87909288 242.48108397 75.86798696 243.94512939 75.85394287 C246.0325492 75.83606132 248.11954367 75.83204709 250.20703125 75.83203125 C251.43010986 75.82792236 252.65318848 75.82381348 253.91333008 75.81958008 C256.9375 76.0625 256.9375 76.0625 259.9375 78.0625 C260.125 81.6875 260.125 81.6875 259.9375 85.0625 C252.67480383 88.37324258 245.64035027 90.79771049 237.828125 92.4453125 C234.80364437 93.05107955 234.80364437 93.05107955 231.375 94.125 C228.45064969 94.92255009 225.6948797 95.44325108 222.70703125 95.90234375 C214.44766842 97.25262962 206.30872818 99.15070158 198.15722656 101.03076172 C189.91886454 102.92443249 181.7794757 104.43589682 173.37705994 105.38793945 C168.73192406 105.92377572 164.44234845 106.84417675 159.9375 108.0625 C156.84375347 108.63335764 153.73652247 109.09969134 150.625 109.5625 C145.43724062 110.35141044 140.27223369 111.16111709 135.125 112.1875 C131.27729378 112.91481032 127.53498213 113.23462357 123.625 113.4375 C113.5900979 114.0536782 103.79544891 116.17127794 93.9375 118.0625 C82.33097169 120.2705459 70.69627549 121.93815987 58.98632812 123.50292969 C50.15147782 124.70349229 41.39051599 126.14545448 32.63793945 127.84350586 C31.39210083 128.08339233 31.39210083 128.08339233 30.12109375 128.328125 C29.04686157 128.54130371 29.04686157 128.54130371 27.95092773 128.75878906 C25.9375 129.0625 25.9375 129.0625 21.9375 129.0625 C21.7828125 130.4546875 21.7828125 130.4546875 21.625 131.875 C20.9375 135.0625 20.9375 135.0625 19.75 136.9375 C16.98094866 138.65622152 15.13392588 138.50999962 11.9375 138.0625 C9.0625 136.1875 9.0625 136.1875 6.9375 134.0625 C6.9375 133.4025 6.9375 132.7425 6.9375 132.0625 C4.6275 132.0625 2.3175 132.0625 -0.0625 132.0625 C-0.7225 133.3825 -1.3825 134.7025 -2.0625 136.0625 C-6.00977588 136.24192163 -8.6605513 136.15600689 -12.0625 134.0625 C-13.0525 137.0325 -13.0525 137.0325 -14.0625 140.0625 C-14.7225 140.0625 -15.3825 140.0625 -16.0625 140.0625 C-16.0625 140.7225 -16.0625 141.3825 -16.0625 142.0625 C-21.61507897 144.92291947 -25.96913141 143.58584215 -31.8125 142.125 C-35.0625 141.0625 -35.0625 141.0625 -38.0625 139.0625 C-40.03525683 138.95265625 -40.03525683 138.95265625 -42.15234375 139.26953125 C-42.93673828 139.36169922 -43.72113281 139.45386719 -44.52929688 139.54882812 C-45.34462891 139.65646484 -46.15996094 139.76410156 -47 139.875 C-48.21719727 140.01905273 -48.21719727 140.01905273 -49.45898438 140.16601562 C-53.06921597 140.60729906 -56.54345833 141.12570547 -60.0625 142.0625 C-60.30033203 143.11824219 -60.30033203 143.11824219 -60.54296875 144.1953125 C-63.2754351 155.75923087 -66.75641805 166.9191001 -73.0625 177.0625 C-73.7225 177.0625 -74.3825 177.0625 -75.0625 177.0625 C-75.289375 177.805 -75.51625 178.5475 -75.75 179.3125 C-77.39495584 182.75907413 -78.76413617 184.12650384 -82.0625 186.0625 C-85.03090073 186.63646811 -86.96737913 186.46187043 -90.0625 186.0625 C-92.58932929 183.93048779 -92.98684453 182.69800593 -93.375 179.4375 C-93.0625 177.0625 -93.0625 177.0625 -91.0625 175.0625 C-88.4375 175.4375 -88.4375 175.4375 -86.0625 176.0625 C-86.0625 177.0525 -86.0625 178.0425 -86.0625 179.0625 C-84.13940578 179.02294102 -84.13940578 179.02294102 -82.0625 178.0625 C-80.27870585 175.07897106 -80.27870585 175.07897106 -79.0625 172.0625 C-78.4025 172.0625 -77.7425 172.0625 -77.0625 172.0625 C-76.959375 171.505625 -76.85625 170.94875 -76.75 170.375 C-76.0625 168.0625 -76.0625 168.0625 -74.61328125 165.77734375 C-72.98179779 162.92122032 -72.27372798 160.51302592 -71.5625 157.3125 C-70.39130621 152.09789907 -68.80374624 147.10873304 -67.0625 142.0625 C-92.33167193 146.27903308 -92.33167193 146.27903308 -117.484375 151.12890625 C-120.84196396 151.82411255 -124.20607647 152.46852339 -127.578125 153.08984375 C-128.98215576 153.34967041 -128.98215576 153.34967041 -130.41455078 153.61474609 C-132.1881566 153.94110955 -133.9625118 154.26344266 -135.73779297 154.58056641 C-140.90047086 155.53555411 -145.82761189 156.85581699 -150.83984375 158.41381836 C-153.39082993 159.158323 -155.85305375 159.58648817 -158.5 159.8125 C-159.30308594 159.88984375 -160.10617188 159.9671875 -160.93359375 160.046875 C-163.0625 160.0625 -163.0625 160.0625 -166.0625 159.0625 C-166.0625 156.4225 -166.0625 153.7825 -166.0625 151.0625 C-162.46551241 149.56430517 -158.85991452 148.35681578 -155.125 147.25 C-149.12353985 145.43116928 -143.23658614 143.37475181 -137.3515625 141.2109375 C-135.1790319 140.45235793 -132.98343435 139.75657273 -130.76953125 139.12890625 C-127.91592891 138.30800695 -125.14718426 137.42029338 -122.34765625 136.44140625 C-112.93440408 133.15635314 -103.89611304 130.42668286 -94.046875 128.80859375 C-88.74205437 127.88839702 -83.60223283 126.3677362 -78.4387207 124.86279297 C-73.35193504 123.38468178 -68.24567021 122.15589017 -63.0625 121.0625 C-58.66027219 100.72781743 -56.80228253 80.77218027 -59.5703125 60.08984375 C-60.766275 50.95803481 -61.10157527 42.47724015 -57.0625 34.0625 C-55.4125 34.0625 -53.7625 34.0625 -52.0625 34.0625 C-49.27496965 42.05580283 -49.06560641 50.48350149 -48.3828125 58.86523438 C-47.57235732 67.66511986 -45.66404619 75.63431203 -43.0625 84.0625 C-42.3494259 86.78277614 -41.70864935 89.51251907 -41.0625 92.25 C-39.69207316 97.94488487 -37.99090076 103.39369197 -35.796875 108.828125 C-35.0625 111.0625 -35.0625 111.0625 -35.0625 115.0625 C-32.51998398 114.81818004 -32.51998398 114.81818004 -30.0625 113.0625 C-27.62950927 107.24214097 -27.75289214 100.16912724 -27.125 93.9375 C-25.65783265 79.52876973 -22.69965703 66.4289848 -18.32885742 52.63623047 C-14.4456277 40.31646954 -11.19875461 27.85285853 -7.92724609 15.35986328 C-7.64187988 14.2717334 -7.35651367 13.18360352 -7.0625 12.0625 C-6.77842285 10.9782373 -6.4943457 9.89397461 -6.20166016 8.77685547 C-5.93530762 7.7767041 -5.66895508 6.77655273 -5.39453125 5.74609375 C-5.16096924 4.8636499 -4.92740723 3.98120605 -4.68676758 3.07202148 C-3.69051734 -0.13491465 -3.54440356 0.07233477 0 0 Z M-52.0625 100.0625 C-53.48674043 107.04733871 -54.80313541 114.04604016 -56.0625 121.0625 C-50.6175 119.5775 -50.6175 119.5775 -45.0625 118.0625 C-45.91758863 113.78705684 -47.03793154 110.27871223 -48.625 106.25 C-49.08003906 105.08855469 -49.53507812 103.92710938 -50.00390625 102.73046875 C-50.35324219 101.85003906 -50.70257813 100.96960938 -51.0625 100.0625 C-51.3925 100.0625 -51.7225 100.0625 -52.0625 100.0625 Z M15.9375 113.0625 C16.9375 116.0625 16.9375 116.0625 16.9375 116.0625 Z M-5.0625 117.0625 C-5.0625 118.7125 -5.0625 120.3625 -5.0625 122.0625 C-4.4025 121.4025 -3.7425 120.7425 -3.0625 120.0625 C-3.0625 119.0725 -3.0625 118.0825 -3.0625 117.0625 C-3.7225 117.0625 -4.3825 117.0625 -5.0625 117.0625 Z M-22.0625 122.0625 C-22.0625 124.0425 -22.0625 126.0225 -22.0625 128.0625 C-19.14615871 128.3127157 -19.14615871 128.3127157 -16.0625 128.0625 C-13.9105563 124.83458445 -13.86163557 123.77849191 -14.0625 120.0625 C-17.26645416 120.0625 -19.15649739 120.80585022 -22.0625 122.0625 Z M-32.0625 123.0625 C-31.4025 124.3825 -30.7425 125.7025 -30.0625 127.0625 C-30.0625 125.7425 -30.0625 124.4225 -30.0625 123.0625 C-30.7225 123.0625 -31.3825 123.0625 -32.0625 123.0625 Z M-51.0625 127.875 C-52.04476562 128.1234668 -52.04476562 128.1234668 -53.046875 128.37695312 C-55.16776604 128.92696982 -55.16776604 128.92696982 -58.0625 130.0625 C-58.3925 131.0525 -58.7225 132.0425 -59.0625 133.0625 C-50.6475 132.0725 -50.6475 132.0725 -42.0625 131.0625 C-42.3925 129.4125 -42.7225 127.7625 -43.0625 126.0625 C-45.72276118 126.0625 -48.49322558 127.17957631 -51.0625 127.875 Z M-76.0625 133.0625 C-75.7325 133.7225 -75.4025 134.3825 -75.0625 135.0625 C-73.78375 135.083125 -72.505 135.10375 -71.1875 135.125 C-70.46820313 135.13660156 -69.74890625 135.14820313 -69.0078125 135.16015625 C-66.98064596 135.18899242 -66.98064596 135.18899242 -65.0625 134.0625 C-65.0625 133.4025 -65.0625 132.7425 -65.0625 132.0625 C-68.89475427 131.97337781 -72.32812152 132.18382271 -76.0625 133.0625 Z M-79.0625 134.0625 C-79.7225 134.7225 -80.3825 135.3825 -81.0625 136.0625 C-79.4125 135.7325 -77.7625 135.4025 -76.0625 135.0625 C-77.0525 134.7325 -78.0425 134.4025 -79.0625 134.0625 Z M-88.0625 136.0625 C-84.0625 137.0625 -84.0625 137.0625 -84.0625 137.0625 Z M-22.0625 136.0625 C-21.0625 138.0625 -21.0625 138.0625 -21.0625 138.0625 Z " fill="#C9C9C9" transform="translate(167.0625,14.9375)"/>
<path d="M0 0 C1.46408995 -0.00817518 2.92816649 -0.01928111 4.39221191 -0.0333252 C6.47963172 -0.05120674 8.56662619 -0.05522098 10.65411377 -0.05523682 C11.87719238 -0.0593457 13.100271 -0.06345459 14.3604126 -0.06768799 C17.38458252 0.17523193 17.38458252 0.17523193 20.38458252 2.17523193 C20.57208252 5.80023193 20.57208252 5.80023193 20.38458252 9.17523193 C13.12188635 12.48597451 6.08743279 14.91044242 -1.72479248 16.55804443 C-4.74927311 17.16381148 -4.74927311 17.16381148 -8.17791748 18.23773193 C-11.10226779 19.03528202 -13.85803778 19.55598302 -16.84588623 20.01507568 C-25.10524906 21.36536156 -33.2441893 23.26343352 -41.39569092 25.14349365 C-49.63405294 27.03716442 -57.77344178 28.54862876 -66.17585754 29.50067139 C-70.82099342 30.03650766 -75.11056903 30.95690869 -79.61541748 32.17523193 C-82.70916402 32.74608958 -85.81639501 33.21242327 -88.92791748 33.67523193 C-94.11567686 34.46414238 -99.28068379 35.27384903 -104.42791748 36.30023193 C-108.2756237 37.02754225 -112.01793535 37.3473555 -115.92791748 37.55023193 C-125.96281958 38.16641013 -135.75746857 40.28400987 -145.61541748 42.17523193 C-157.45867312 44.42831324 -169.3369446 46.15551035 -181.28948975 47.72991943 C-187.41889186 48.54722842 -193.45638667 49.50303912 -199.50872803 50.76727295 C-202.19835657 51.28811769 -204.81498585 51.54438415 -207.55291748 51.61273193 C-208.44881592 51.65269287 -209.34471436 51.69265381 -210.26776123 51.73382568 C-212.61541748 51.17523193 -212.61541748 51.17523193 -214.43182373 48.64788818 C-214.82240967 47.83191162 -215.21299561 47.01593506 -215.61541748 46.17523193 C-203.709318 43.16340524 -191.87426344 40.57559145 -179.72088623 38.79632568 C-176.52988686 38.32873512 -173.3909813 37.74528386 -170.24041748 37.05023193 C-166.74479364 36.30927919 -163.3703393 36.00018933 -159.80291748 35.80023193 C-151.19843218 35.22592788 -142.84988648 33.4078174 -134.40789795 31.72796631 C-122.43566012 29.35822103 -110.4828158 27.21312871 -98.36541748 25.73773193 C-87.81749363 24.44780162 -77.4558851 22.50246294 -67.03729248 20.42913818 C-60.99729262 19.23148938 -54.93833661 18.18997906 -48.86541748 17.17523193 C-40.93692495 15.83376364 -33.08351289 14.26246562 -25.24041748 12.48773193 C-24.28812256 12.27310303 -23.33582764 12.05847412 -22.35467529 11.83734131 C-18.15443982 11.17273519 -18.15443982 11.17273519 -14.61541748 9.17523193 C-15.25608154 9.19843506 -15.89674561 9.22163818 -16.55682373 9.24554443 C-22.02528844 9.35964057 -26.44640025 8.97315097 -31.61541748 7.17523193 C-32.24041748 5.30023193 -32.24041748 5.30023193 -32.61541748 3.17523193 C-26.57253168 -2.86765387 -8.37084082 0.04443788 0 0 Z " fill="#C3C3C3" transform="translate(406.61541748046875,90.82476806640625)"/>
<path d="M0 0 C1.4540625 0.0309375 1.4540625 0.0309375 2.9375 0.0625 C5.12434534 4.43619068 4.54066589 10.02798707 3.18359375 14.60546875 C2.49302889 16.3955212 1.78894399 18.18039392 1.07421875 19.9609375 C-0.23088036 23.52192958 -1.13273411 27.12750314 -2 30.8125 C-3.58510307 37.46882995 -5.60350854 43.83949865 -7.83203125 50.3125 C-9.50070849 55.39799254 -10.84510971 60.53817463 -12.16796875 65.72265625 C-13.0625 69.0625 -13.0625 69.0625 -14.046875 71.87109375 C-15.42711316 76.20822673 -16.27763407 80.59453402 -17.125 85.0625 C-17.3012793 85.98571045 -17.47755859 86.9089209 -17.65917969 87.86010742 C-19.02043905 95.25889946 -19.80952377 102.53645709 -20.0625 110.0625 C-20.7225 109.4025 -21.3825 108.7425 -22.0625 108.0625 C-23.0525 109.0525 -23.0525 109.0525 -24.0625 110.0625 C-25.3825 110.0625 -26.7025 110.0625 -28.0625 110.0625 C-27.26471267 90.86058417 -24.74573581 72.43630167 -19.0625 54.0625 C-18.5909524 52.50175314 -18.12093176 50.94054423 -17.65234375 49.37890625 C-16.91819653 46.93240692 -16.18331544 44.48617957 -15.44311523 42.04150391 C-13.3147617 34.98873791 -11.29894643 27.9064318 -9.3125 20.8125 C-9.01875488 19.76505615 -8.72500977 18.7176123 -8.42236328 17.63842773 C-7.19505447 13.23495161 -5.99248052 8.8350206 -4.921875 4.390625 C-3.80821374 0.07771865 -3.80821374 0.07771865 0 0 Z " fill="#BDBDBD" transform="translate(167.0625,14.9375)"/>
<path d="M0 0 C0.33 1.32 0.66 2.64 1 4 C4.0745356 3.2236068 4.0745356 3.2236068 6 1 C6.495 3.475 6.495 3.475 7 6 C8.98 6 10.96 6 13 6 C12.67 6.66 12.34 7.32 12 8 C12.495 9.485 12.495 9.485 13 11 C15.475 11.495 15.475 11.495 18 12 C18 12.33 18 12.66 18 13 C13.38 13.99 8.76 14.98 4 16 C4 16.66 4 17.32 4 18 C3.34 18 2.68 18 2 18 C2 18.99 2 19.98 2 21 C1.01 21.66 0.02 22.32 -1 23 C-0.4740625 23.9590625 -0.4740625 23.9590625 0.0625 24.9375 C3.15439156 35.0376791 -3.08758755 48.01672779 -7.5078125 57.09765625 C-8.62118133 59.10490119 -9.75765446 61.07051643 -11 63 C-11.66 63 -12.32 63 -13 63 C-13.226875 63.7425 -13.45375 64.485 -13.6875 65.25 C-15.33245584 68.69657413 -16.70163617 70.06400384 -20 72 C-22.96840073 72.57396811 -24.90487913 72.39937043 -28 72 C-30.52682929 69.86798779 -30.92434453 68.63550593 -31.3125 65.375 C-31 63 -31 63 -29 61 C-26.375 61.375 -26.375 61.375 -24 62 C-24 62.99 -24 63.98 -24 65 C-22.07690578 64.96044102 -22.07690578 64.96044102 -20 64 C-18.21620585 61.01647106 -18.21620585 61.01647106 -17 58 C-16.34 58 -15.68 58 -15 58 C-14.896875 57.443125 -14.79375 56.88625 -14.6875 56.3125 C-14 54 -14 54 -12.55078125 51.71484375 C-10.91929779 48.85872032 -10.21122798 46.45052592 -9.5 43.25 C-8.28020127 38.0351991 -6.76868335 33.05338099 -5 28 C-6.2065625 28.2475 -6.2065625 28.2475 -7.4375 28.5 C-11.65887352 29.09247348 -15.74664545 29.08506709 -20 29 C-18 27 -18 27 -15 26 C-15.33 24.68 -15.66 23.36 -16 22 C-12.68629 19.79086 -11.6553979 19.77518447 -7.8125 19.875 C-6.91144531 19.89304688 -6.01039062 19.91109375 -5.08203125 19.9296875 C-4.39496094 19.95289063 -3.70789063 19.97609375 -3 20 C-3 19.34 -3 18.68 -3 18 C-5.97 18.33 -8.94 18.66 -12 19 C-13.125 16.6875 -13.125 16.6875 -14 14 C-12 11 -12 11 -8.875 10.3125 C-7.92625 10.209375 -6.9775 10.10625 -6 10 C-6 9.34 -6 8.68 -6 8 C-4.35 7.67 -2.7 7.34 -1 7 C-0.67 4.69 -0.34 2.38 0 0 Z M13 9 C13.66 9.66 14.32 10.32 15 11 C14.34 11 13.68 11 13 11 C13 10.34 13 9.68 13 9 Z " fill="#C4C4C4" transform="translate(105,129)"/>
<path d="M0 0 C0.66 1.32 1.32 2.64 2 4 C2.66 4 3.32 4 4 4 C4.66 3.34 5.32 2.68 6 2 C5.33440759 13.09320683 0.82027117 23.63803191 -5 33 C-5.66 33 -6.32 33 -7 33 C-7.226875 33.7425 -7.45375 34.485 -7.6875 35.25 C-9.33245584 38.69657413 -10.70163617 40.06400384 -14 42 C-16.96840073 42.57396811 -18.90487913 42.39937043 -22 42 C-24.52682929 39.86798779 -24.92434453 38.63550593 -25.3125 35.375 C-25 33 -25 33 -23 31 C-20.375 31.375 -20.375 31.375 -18 32 C-18 32.99 -18 33.98 -18 35 C-16.07690578 34.96044102 -16.07690578 34.96044102 -14 34 C-12.21620585 31.01647106 -12.21620585 31.01647106 -11 28 C-10.34 28 -9.68 28 -9 28 C-8.896875 27.443125 -8.79375 26.88625 -8.6875 26.3125 C-8 24 -8 24 -6.5546875 21.72265625 C-4.90579927 18.83503039 -4.17235801 16.35837525 -3.4375 13.125 C-2.40115288 8.70688861 -1.28562916 4.35136024 0 0 Z " fill="#ADADAD" transform="translate(99,159)"/>
<path d="M0 0 C-0.99 0.66 -1.98 1.32 -3 2 C-3.33 2.99 -3.66 3.98 -4 5 C-5.98 5.33 -7.96 5.66 -10 6 C-7.03 6.33 -4.06 6.66 -1 7 C-1 7.33 -1 7.66 -1 8 C-2.01199463 8.12060791 -2.01199463 8.12060791 -3.04443359 8.24365234 C-6.15512272 8.61672216 -9.26504919 8.99582663 -12.375 9.375 C-13.43589844 9.50132812 -14.49679688 9.62765625 -15.58984375 9.7578125 C-21.40678663 10.47154782 -27.10725287 11.38220846 -32.84277344 12.58105469 C-35.55010254 13.10683295 -38.18109821 13.36869114 -40.9375 13.4375 C-41.83339844 13.47746094 -42.72929687 13.51742187 -43.65234375 13.55859375 C-46 13 -46 13 -47.81640625 10.47265625 C-48.20699219 9.65667969 -48.59757813 8.84070313 -49 8 C-37.03125067 4.97232508 -25.12738495 2.35196609 -12.90625 0.578125 C-10.63257924 0.24162173 -8.36277103 -0.13365425 -6.11328125 -0.60546875 C-3.75352756 -1.04601426 -2.25812445 -0.75270815 0 0 Z " fill="#D0D0D0" transform="translate(240,129)"/>
<path d="M0 0 C0.625 2.5625 0.625 2.5625 1 5 C-3.57971785 6.64326849 -8.15693439 7.76534411 -12.9375 8.625 C-13.67025146 8.75688721 -14.40300293 8.88877441 -15.15795898 9.0246582 C-22.47489635 10.24113344 -29.59782438 10.2909152 -37 10 C-35.63671875 8.48046875 -35.63671875 8.48046875 -34 7 C-31.8125 7.3125 -31.8125 7.3125 -30 8 C-29.9175 7.401875 -29.835 6.80375 -29.75 6.1875 C-28.72086052 3.18584318 -27.78621335 2.55559968 -25 1 C-22.02819677 0.51345256 -19.0695444 0.44262831 -16.0625 0.375 C-14.46994304 0.32358573 -12.87748525 0.26898429 -11.28515625 0.2109375 C-10.16778076 0.17178223 -10.16778076 0.17178223 -9.02783203 0.13183594 C-0.80545493 -0.40272747 -0.80545493 -0.40272747 0 0 Z " fill="#C6C6C6" transform="translate(266,126)"/>
<path d="M0 0 C-3.465 1.485 -3.465 1.485 -7 3 C-6.67 4.98 -6.34 6.96 -6 9 C-7.65 9.66 -9.3 10.32 -11 11 C-10.65213292 12.97536745 -10.65213292 12.97536745 -10 15 C-9.34 15.33 -8.68 15.66 -8 16 C-9.98 16.99 -9.98 16.99 -12 18 C-11.67 18.66 -11.34 19.32 -11 20 C-13.97 20.33 -16.94 20.66 -20 21 C-19.67 20.34 -19.34 19.68 -19 19 C-18.34 19 -17.68 19 -17 19 C-17 18.34 -17 17.68 -17 17 C-16.34 16.34 -15.68 15.68 -15 15 C-17.97 14.505 -17.97 14.505 -21 14 C-20.67 13.34 -20.34 12.68 -20 12 C-18.68 12.33 -17.36 12.66 -16 13 C-16 12.34 -16 11.68 -16 11 C-17.65 11 -19.3 11 -21 11 C-22 8 -22 8 -22 5 C-19.18034769 2.18034769 -15.88680496 1.73464157 -12.125 0.8125 C-11.40441406 0.62236328 -10.68382813 0.43222656 -9.94140625 0.23632812 C-6.23274128 -0.68913063 -3.64595873 -1.12653757 0 0 Z " fill="#C1C1C2" transform="translate(99,139)"/>
<path d="M0 0 C0 0.33 0 0.66 0 1 C-15.345 1.495 -15.345 1.495 -31 2 C-30.34 2.66 -29.68 3.32 -29 4 C-29.25 6.0625 -29.25 6.0625 -30 8 C-34.67520554 10.33760277 -41.22712019 9.41227209 -46.125 8 C-47.07375 7.67 -48.0225 7.34 -49 7 C-49.625 5.125 -49.625 5.125 -50 3 C-41.9599642 -5.0400358 -11.46586002 -0.06780212 0 0 Z " fill="#989898" transform="translate(424,91)"/>
<path d="M0 0 C3.125 -0.1875 3.125 -0.1875 6 0 C7.86987711 3.73975422 7.55619345 7.92913733 7 12 C5.65318205 14.93851189 3.98822301 17.45791486 2 20 C1.360625 19.195625 0.72125 18.39125 0.0625 17.5625 C-1.40603502 15.7249496 -1.40603502 15.7249496 -3 14 C-2.96201014 12.20570991 -2.84469455 10.41279473 -2.6875 8.625 C-2.60886719 7.64789062 -2.53023437 6.67078125 -2.44921875 5.6640625 C-2 3 -2 3 0 0 Z " fill="#BDBDBD" transform="translate(164,15)"/>
<path d="M0 0 C-0.495 0.94875 -0.99 1.8975 -1.5 2.875 C-3.14424369 5.72278166 -3.14424369 5.72278166 -3 8 C-1.35 8.33 0.3 8.66 2 9 C-1.05155734 10.73464396 -3.5759975 11.36672074 -7.0625 11.6875 C-7.91972656 11.77386719 -8.77695313 11.86023438 -9.66015625 11.94921875 C-12 12 -12 12 -15 11 C-15 8.36 -15 5.72 -15 3 C-4.44 -1.48 -4.44 -1.48 0 0 Z " fill="#BABABA" transform="translate(16,163)"/>
<path d="M0 0 C-0.99 0.66 -1.98 1.32 -3 2 C-3.33 2.99 -3.66 3.98 -4 5 C-5.98 5.33 -7.96 5.66 -10 6 C-7.03 6.33 -4.06 6.66 -1 7 C-1 7.33 -1 7.66 -1 8 C-4.81236851 8.48021658 -8.62491823 8.95897981 -12.4375 9.4375 C-13.50677734 9.57220703 -14.57605469 9.70691406 -15.67773438 9.84570312 C-21.78070943 10.61090795 -27.88498583 11.33770088 -34 12 C-30.98045155 10.41223006 -28.66170873 9.67603312 -25.25 9.375 C-24.45078125 9.30023438 -23.6515625 9.22546875 -22.828125 9.1484375 C-22.22484375 9.09945312 -21.6215625 9.05046875 -21 9 C-21 8.01 -21 7.02 -21 6 C-20.01 6 -19.02 6 -18 6 C-17.67 5.34 -17.34 4.68 -17 4 C-17.66 4 -18.32 4 -19 4 C-19 3.34 -19 2.68 -19 2 C-16.58525383 1.46839543 -14.16891893 0.94945234 -11.75 0.4375 C-10.72712891 0.21030273 -10.72712891 0.21030273 -9.68359375 -0.02148438 C-6.18230962 -0.75233495 -3.39701827 -1.32203546 0 0 Z " fill="#ADADAD" transform="translate(240,129)"/>
<path d="M0 0 C0 0.33 0 0.66 0 1 C-2.31 1 -4.62 1 -7 1 C-7.33 3.31 -7.66 5.62 -8 8 C-6.68 8.33 -5.36 8.66 -4 9 C-8.62 9.66 -13.24 10.32 -18 11 C-18.66 9.35 -19.32 7.7 -20 6 C-19.360625 5.731875 -18.72125 5.46375 -18.0625 5.1875 C-15.66868314 4.11332248 -15.66868314 4.11332248 -15 1 C-9.91913204 0.15318867 -5.15171623 -0.09038099 0 0 Z " fill="#C1C1C1" transform="translate(123,146)"/>
<path d="M0 0 C0.99 0.66 1.98 1.32 3 2 C5.32387947 2.39387788 7.65793749 2.73486085 10 3 C10 3.99 10 4.98 10 6 C9.01 6 8.02 6 7 6 C7 6.66 7 7.32 7 8 C3.91111478 10.05925681 3.29064073 10.2390374 -0.1875 10.125 C-2.0746875 10.063125 -2.0746875 10.063125 -4 10 C-3.67558396 8.33157466 -3.34060811 6.66519519 -3 5 C-2.855625 4.2575 -2.71125 3.515 -2.5625 2.75 C-2.376875 2.1725 -2.19125 1.595 -2 1 C-1.34 0.67 -0.68 0.34 0 0 Z " fill="#DADADA" transform="translate(75,150)"/>
<path d="M0 0 C1.32 0 2.64 0 4 0 C4 1.98 4 3.96 4 6 C5.65 5.67 7.3 5.34 9 5 C9 8 9 8 7.8125 9.6875 C6 11 6 11 3.5 11.4375 C1 11 1 11 -0.8125 9.3125 C-2.20175677 6.60710524 -2.39499804 5.00198512 -2 2 C-1.34 1.34 -0.68 0.68 0 0 Z " fill="#BDBDBD" transform="translate(76,190)"/>
<path d="M0 0 C-0.33 0.99 -0.66 1.98 -1 3 C-0.67 3.66 -0.34 4.32 0 5 C2.52733235 5.65555119 2.52733235 5.65555119 5 6 C5 6.33 5 6.66 5 7 C3.41913952 7.36504603 1.83516093 7.71660506 0.25 8.0625 C-0.63171875 8.25972656 -1.5134375 8.45695313 -2.421875 8.66015625 C-4.98679028 8.99825872 -6.57091639 8.81158635 -9 8 C-8.01 8 -7.02 8 -6 8 C-6.66 7.67 -7.32 7.34 -8 7 C-8.33 5.68 -8.66 4.36 -9 3 C-12.3 3.33 -15.6 3.66 -19 4 C-15.72134908 2.36067454 -13.55518221 1.55308622 -10.0625 0.875 C-8.81146484 0.62363281 -8.81146484 0.62363281 -7.53515625 0.3671875 C-4.98541981 -0.00211177 -2.57240933 -0.06442528 0 0 Z " fill="#9D9D9D" transform="translate(273,123)"/>
<path d="M0 0 C1.45823212 -0.0270043 2.91660675 -0.04639787 4.375 -0.0625 C5.18710938 -0.07410156 5.99921875 -0.08570313 6.8359375 -0.09765625 C9 0 9 0 11 1 C10.67 1.99 10.34 2.98 10 4 C9.01 3.67 8.02 3.34 7 3 C7 3.99 7 4.98 7 6 C3.37 6.33 -0.26 6.66 -4 7 C-3.34 5.35 -2.68 3.7 -2 2 C-1.34 2 -0.68 2 0 2 C0 1.34 0 0.68 0 0 Z " fill="#D8D8D8" transform="translate(212,132)"/>
<path d="M0 0 C-1.14194429 2.80063432 -2.32801232 5.47332213 -4 8 C-6.75 9 -6.75 9 -9 9 C-10.125 6.6875 -10.125 6.6875 -11 4 C-8.17267749 -0.24098377 -4.91545957 -1.63848652 0 0 Z " fill="#DADADB" transform="translate(102,139)"/>
<path d="M0 0 C3 0.125 3 0.125 4 1.125 C4.04080783 3.12458364 4.04254356 5.12545254 4 7.125 C2.02 8.115 2.02 8.115 0 9.125 C-3 7.125 -3 7.125 -3.75 4.0625 C-3.8325 3.093125 -3.915 2.12375 -4 1.125 C-3 0.125 -3 0.125 0 0 Z " fill="#BABABA" transform="translate(160,94.875)"/>
<path d="M0 0 C0 0.99 0 1.98 0 3 C0.66 3.33 1.32 3.66 2 4 C0.02 4.99 0.02 4.99 -2 6 C-1.67 6.66 -1.34 7.32 -1 8 C-5.455 8.495 -5.455 8.495 -10 9 C-9.67 8.34 -9.34 7.68 -9 7 C-8.34 7 -7.68 7 -7 7 C-7 6.34 -7 5.68 -7 5 C-6.34 4.34 -5.68 3.68 -5 3 C-7.97 2.505 -7.97 2.505 -11 2 C-10.67 1.34 -10.34 0.68 -10 0 C-6.35346727 -1.11421833 -3.66708957 -0.94296589 0 0 Z " fill="#A4A4A6" transform="translate(89,151)"/>
<path d="M0 0 C-0.639375 0.94875 -1.27875 1.8975 -1.9375 2.875 C-3.92620563 5.75287827 -3.92620563 5.75287827 -5 8 C-8.63 8 -12.26 8 -16 8 C-15.01 7.01 -14.02 6.02 -13 5 C-10.8125 5.3125 -10.8125 5.3125 -9 6 C-8.8453125 5.071875 -8.8453125 5.071875 -8.6875 4.125 C-7.25616829 -0.29911619 -4.03097181 -0.21789037 0 0 Z " fill="#DADADA" transform="translate(245,128)"/>
<path d="M0 0 C1.66611905 -0.042721 3.33382885 -0.04063832 5 0 C6 1 6 1 6.11352539 2.94946289 C6.10828857 3.7821167 6.10305176 4.61477051 6.09765625 5.47265625 C6.09443359 6.37177734 6.09121094 7.27089844 6.08789062 8.19726562 C6.07951172 9.14279297 6.07113281 10.08832031 6.0625 11.0625 C6.05798828 12.01189453 6.05347656 12.96128906 6.04882812 13.93945312 C6.0370011 16.29303065 6.02052025 18.64648477 6 21 C5.67 21 5.34 21 5 21 C5 16.38 5 11.76 5 7 C3.68 7.33 2.36 7.66 1 8 C0.67 5.36 0.34 2.72 0 0 Z " fill="#B6B6B6" transform="translate(183,42)"/>
<path d="M0 0 C3.5 0.25 3.5 0.25 5.5 2.25 C5.17 3.24 4.84 4.23 4.5 5.25 C1.86 5.58 -0.78 5.91 -3.5 6.25 C-4.16 4.93 -4.82 3.61 -5.5 2.25 C-3.5 0.25 -3.5 0.25 0 0 Z " fill="#D9D9D9" transform="translate(276.5,122.75)"/>
<path d="M0 0 C2.1640625 0.0234375 2.1640625 0.0234375 4.625 0.375 C5.85089844 0.54128906 5.85089844 0.54128906 7.1015625 0.7109375 C7.72804688 0.80632812 8.35453125 0.90171875 9 1 C9 1.33 9 1.66 9 2 C7.02 2 5.04 2 3 2 C3 4.31 3 6.62 3 9 C0.03 9 -2.94 9 -6 9 C-4 7 -4 7 -1 6 C-1.20625 5.38125 -1.4125 4.7625 -1.625 4.125 C-1.74875 3.42375 -1.8725 2.7225 -2 2 C-1.34 1.34 -0.68 0.68 0 0 Z " fill="#C3C3C3" transform="translate(91,149)"/>
<path d="M0 0 C-3.465 1.485 -3.465 1.485 -7 3 C-7 3.66 -7 4.32 -7 5 C-6.01 4.67 -5.02 4.34 -4 4 C-3.67 4.66 -3.34 5.32 -3 6 C-7.455 6.495 -7.455 6.495 -12 7 C-11.67 4.69 -11.34 2.38 -11 0 C-3.57142857 -1.28571429 -3.57142857 -1.28571429 0 0 Z " fill="#DCDCDC" transform="translate(127,147)"/>
<path d="M0 0 C2.475 0.99 2.475 0.99 5 2 C4.67 3.65 4.34 5.3 4 7 C1.36 7.33 -1.28 7.66 -4 8 C-3.34 7.67 -2.68 7.34 -2 7 C-2.33 6.01 -2.66 5.02 -3 4 C-2.34 4 -1.68 4 -1 4 C-0.67 2.68 -0.34 1.36 0 0 Z " fill="#B8B8B8" transform="translate(327,115)"/>
<path d="M0 0 C1.2065625 0.0309375 1.2065625 0.0309375 2.4375 0.0625 C2.7675 1.0525 3.0975 2.0425 3.4375 3.0625 C4.7575 2.7325 6.0775 2.4025 7.4375 2.0625 C7.1075 3.3825 6.7775 4.7025 6.4375 6.0625 C5.7775 6.0625 5.1175 6.0625 4.4375 6.0625 C4.4375 6.7225 4.4375 7.3825 4.4375 8.0625 C3.4475 7.7325 2.4575 7.4025 1.4375 7.0625 C1.7675 6.0725 2.0975 5.0825 2.4375 4.0625 C0.7875 4.3925 -0.8625 4.7225 -2.5625 5.0625 C-3.125 3.125 -3.125 3.125 -3.5625 1.0625 C-2.5625 0.0625 -2.5625 0.0625 0 0 Z M-1.5625 2.0625 C-0.5625 4.0625 -0.5625 4.0625 -0.5625 4.0625 Z " fill="#A7A7A7" transform="translate(146.5625,148.9375)"/>
<path d="M0 0 C0 0.33 0 0.66 0 1 C-2.31 1 -4.62 1 -7 1 C-7.33 2.98 -7.66 4.96 -8 7 C-8.5775 6.525625 -9.155 6.05125 -9.75 5.5625 C-11.92582084 4.0515133 -13.42602448 3.45963849 -16 3 C-15.67 2.34 -15.34 1.68 -15 1 C-9.96109772 -0.0283474 -5.11310018 -0.08970351 0 0 Z " fill="#8D8D8D" transform="translate(123,146)"/>
<path d="M0 0 C0.33 0.99 0.66 1.98 1 3 C2.98 2.34 4.96 1.68 7 1 C8 2 8 2 8.25 4.375 C8 7 8 7 6.5 8.8125 C6.005 9.204375 5.51 9.59625 5 10 C4.01 9.67 3.02 9.34 2 9 C2.66 9 3.32 9 4 9 C4.33 7.68 4.66 6.36 5 5 C3.35 5 1.7 5 0 5 C0 3.35 0 1.7 0 0 Z " fill="#989898" transform="translate(80,191)"/>
<path d="M0 0 C-1.32 1.65 -2.64 3.3 -4 5 C-5.65 4.67 -7.3 4.34 -9 4 C-8.67 2.68 -8.34 1.36 -8 0 C-2.25 -1.125 -2.25 -1.125 0 0 Z " fill="#D9D9D9" transform="translate(102,151)"/>
<path d="M0 0 C3.3 0.99 6.6 1.98 10 3 C10 4.98 10 6.96 10 9 C9.67 9 9.34 9 9 9 C9 7.35 9 5.7 9 4 C6.36 4.66 3.72 5.32 1 6 C0.67 4.02 0.34 2.04 0 0 Z " fill="#9C9C9C" transform="translate(144,131)"/>
<path d="M0 0 C2.31 0.33 4.62 0.66 7 1 C6.625 3.9375 6.625 3.9375 6 7 C5.01 7.495 5.01 7.495 4 8 C2.3372974 5.32521756 1.00016187 3.0004856 0 0 Z " fill="#D7D7D7" transform="translate(161,27)"/>
<path d="M0 0 C-0.6875 1.9375 -0.6875 1.9375 -2 4 C-4.625 4.75 -4.625 4.75 -7 5 C-6.625 2.5625 -6.625 2.5625 -6 0 C-3.50907189 -1.24546405 -2.58919267 -0.7767578 0 0 Z " fill="#D9D9D9" transform="translate(86,196)"/>
<path d="M0 0 C-0.99 0.66 -1.98 1.32 -3 2 C-2.67 2.99 -2.34 3.98 -2 5 C-3.98 5 -5.96 5 -8 5 C-6.19780722 -0.02039417 -5.34443412 -1.60333024 0 0 Z " fill="#DBDBDB" transform="translate(216,134)"/>
<path d="M0 0 C1.65 0 3.3 0 5 0 C4.67 1.98 4.34 3.96 4 6 C3.01 5.67 2.02 5.34 1 5 C0.67 5.66 0.34 6.32 0 7 C0 4.69 0 2.38 0 0 Z " fill="#D9D9D9" transform="translate(100,158)"/>
<path d="M0 0 C0.99 0 1.98 0 3 0 C3 1.32 3 2.64 3 4 C4.32 4.33 5.64 4.66 7 5 C3.7 5.33 0.4 5.66 -3 6 C-1.68 5.67 -0.36 5.34 1 5 C0.01 4.01 -0.98 3.02 -2 2 C-1.34 1.34 -0.68 0.68 0 0 Z " fill="#B6B6B6" transform="translate(68,156)"/>
<path d="M0 0 C-0.99 0.66 -1.98 1.32 -3 2 C-3.33 2.99 -3.66 3.98 -4 5 C-4.99 5 -5.98 5 -7 5 C-7 4.01 -7 3.02 -7 2 C-7.66 1.34 -8.32 0.68 -9 0 C-5.62182575 -0.84454356 -3.32534757 -1.10844919 0 0 Z " fill="#A6A6A6" transform="translate(240,129)"/>
<path d="M0 0 C-1.65 1.32 -3.3 2.64 -5 4 C-5.33 3.34 -5.66 2.68 -6 2 C-8.31 2 -10.62 2 -13 2 C-8.62836676 -0.42868513 -4.86219789 -1.62073263 0 0 Z " fill="#8B8B8B" transform="translate(212,134)"/>
<path d="M0 0 C-1.17578125 1.51953125 -1.17578125 1.51953125 -3 3 C-5.48046875 3.07421875 -5.48046875 3.07421875 -8.1875 2.6875 C-9.53908203 2.50767578 -9.53908203 2.50767578 -10.91796875 2.32421875 C-11.94857422 2.16373047 -11.94857422 2.16373047 -13 2 C-13 1.67 -13 1.34 -13 1 C-8.60563789 0.14256349 -4.47427924 -0.08948558 0 0 Z " fill="#B8B8B8" transform="translate(234,130)"/>
<path d="M0 0 C1.65 0 3.3 0 5 0 C4.67 1.65 4.34 3.3 4 5 C2.68 4.67 1.36 4.34 0 4 C0 2.68 0 1.36 0 0 Z " fill="#BCBCBC" transform="translate(231,116)"/>
<path d="M0 0 C2.31 0 4.62 0 7 0 C5.35 1.98 3.7 3.96 2 6 C1.34 5.01 0.68 4.02 0 3 C0.66 2.67 1.32 2.34 2 2 C1.34 1.34 0.68 0.68 0 0 Z " fill="#A5A5A5" transform="translate(212,132)"/>
<path d="M0 0 C1.98 0 3.96 0 6 0 C5.01 1.485 5.01 1.485 4 3 C4 3.66 4 4.32 4 5 C2.68 4.34 1.36 3.68 0 3 C0 2.01 0 1.02 0 0 Z " fill="#DFDFDF" transform="translate(393,92)"/>
<path d="M0 0 C2 1 2 1 2 1 Z M-2 1 C-1.01 1.33 -0.02 1.66 1 2 C0.34 3.32 -0.32 4.64 -1 6 C-2.65 5.67 -4.3 5.34 -6 5 C-4.68 3.68 -3.36 2.36 -2 1 Z " fill="#9F9F9F" transform="translate(73,150)"/>
<path d="M0 0 C0.66 0.33 1.32 0.66 2 1 C2 2.98 2 4.96 2 7 C0.02 7.99 0.02 7.99 -2 9 C-2.66 8.34 -3.32 7.68 -4 7 C-2.35 6.67 -0.7 6.34 1 6 C0.67 4.02 0.34 2.04 0 0 Z " fill="#696969" transform="translate(162,95)"/>
</svg>
